<svg width="165" height="200" viewBox="0 0 165 200" fill="none" xmlns="http://www.w3.org/2000/svg">
<path d="M82.3 164.2C127.753 164.2 164.6 127.443 164.6 82.1C164.6 36.7574 127.753 0 82.3 0C36.847 0 0 36.7574 0 82.1C0 127.443 36.847 164.2 82.3 164.2Z" fill="#D05843"/>
<path fill-rule="evenodd" clip-rule="evenodd" d="M16.5 196.2L81.8 82.4L147 196.2C142.1 190.9 135 187.6 127.2 187.6C117.7 187.6 109.3 192.5 104.5 200C99.7 192.6 91.3 187.6 81.8 187.6C72.3 187.6 63.9 192.5 59.1 200C54.3 192.6 45.9 187.6 36.4 187.6C28.5 187.6 21.5 190.9 16.5 196.2Z" fill="#DA8373"/>
<path d="M106.9 126.3L81.8 82.4L56.7 126.2H106.9V126.3Z" fill="white"/>
</svg>
