<svg width="640" height="200" viewBox="0 0 640 200" fill="none" xmlns="http://www.w3.org/2000/svg">
<path d="M82.3 164.2C127.753 164.2 164.6 127.443 164.6 82.1C164.6 36.7574 127.753 0 82.3 0C36.847 0 0 36.7574 0 82.1C0 127.443 36.847 164.2 82.3 164.2Z" fill="#D05843"/>
<path fill-rule="evenodd" clip-rule="evenodd" d="M16.5 196.2L81.8 82.4L147 196.2C142.1 190.9 135 187.6 127.2 187.6C117.7 187.6 109.3 192.5 104.5 200C99.7 192.6 91.3 187.6 81.8 187.6C72.3 187.6 63.9 192.5 59.1 200C54.3 192.6 45.9 187.6 36.4 187.6C28.5 187.6 21.5 190.9 16.5 196.2Z" fill="#DA8373"/>
<path d="M106.9 126.3L81.8 82.4L56.7 126.2H106.9V126.3Z" fill="white"/>
<path d="M210.3 71.1H238.2L244.7 87.6H264L226 0.100006H225L187 87.6H203.4L210.3 71.1ZM224.6 36.7L232.7 57.2H216.1L224.6 36.7Z" fill="#D05843"/>
<path d="M351 87.6H367.6V0H367.4L323.6 60.5L280.9 0H280.8V87.6H296.8V50L323.3 86.5H323.5L351 47.5V87.6Z" fill="#D05843"/>
<path d="M213.8 127.5C215.9 126.1 218.7 125.3 222.4 125.3C227.8 125.3 234.2 127.3 241.5 131.4L247.8 118.7C243.8 116.1 239.7 114.1 235.5 112.8C231.3 111.4 226.1 110.6 219.8 110.6C211.9 111 205.5 113.4 200.7 117.8C196 122.2 193.6 128.1 193.6 135.3C193.6 140.3 194.7 144.4 197 147.7C199.4 151 202.2 153.5 205.4 155.2C208.6 157 212.6 158.8 217.4 160.7C225.6 163.9 229.7 167.7 229.7 172C229.7 175.4 228.4 177.8 225.8 179.3C223.2 180.7 220.2 181.5 216.6 181.5C213.6 181.5 210.3 180.8 206.5 179.4C202.8 178 199.4 176.3 196.5 174.1L189.2 187C193.5 190 198.1 192.3 203.1 193.9C208.1 195.3 213.1 196.1 218.1 196.1C224.1 196.1 229.3 195 233.7 192.9C238 190.7 241.3 187.8 243.5 184.1C245.8 180.4 246.9 176.3 246.9 172C246.9 167 245.9 162.8 244 159.5C242.2 156.2 239.8 153.7 237 151.8C234.2 149.9 230.8 148.2 226.8 146.8C221.9 145 218 143.1 215 141.1C212.1 139 210.7 136.7 210.7 134C210.8 131.2 211.8 129 213.8 127.5Z" fill="#D05843"/>
<path d="M262.1 127.1H281.8V195.2H298.4V127.1H318.9V111.1H262.1V127.1Z" fill="#D05843"/>
<path d="M389.7 164.1C389.7 166.8 388.9 169.3 387.3 171.8C385.8 174.2 383.6 176.2 380.9 177.7C378.2 179.2 375.1 180 371.9 180C368.8 180 366 179.2 363.3 177.7C360.6 176.2 358.5 174.2 356.9 171.8C355.3 169.4 354.5 166.8 354.5 164.1V111H337.9V164.4C337.9 170.4 339.4 175.9 342.4 180.8C345.5 185.6 349.6 189.4 354.8 192.1C360 194.8 365.7 196.1 372 196.1C378.3 196.1 384 194.8 389.2 192.1C394.5 189.4 398.6 185.6 401.7 180.8C404.8 175.9 406.3 170.5 406.3 164.4V111H389.9V164.1H389.7Z" fill="#D05843"/>
<path d="M480.4 117.4C473.5 113.2 464.6 111.1 453.8 111.1H428.6V195.3H458C465.7 195.3 472.8 193.7 479.2 190.4C485.7 187 490.8 182.3 494.7 176.1C498.5 169.9 500.4 162.8 500.4 154.7C500.4 147.2 498.8 140.1 495.6 133.5C492.4 126.8 487.4 121.5 480.4 117.4ZM475.6 172.6C470.6 177 463.7 179.2 455.1 179.2H445.3V127H458.8C462.1 127 465.6 127.8 469.2 129.3C472.9 130.8 476.2 133.6 478.9 137.5C481.7 141.5 483.1 146.8 483.1 153.5C483.2 161.8 480.7 168.2 475.6 172.6Z" fill="#D05843"/>
<path d="M535 111.1H518.4V195.3H535V111.1Z" fill="#D05843"/>
<path d="M634 131.9C630.1 125.3 624.8 120 618.2 116.1C611.6 112.1 604.5 110.2 596.8 110.2C589.1 110.2 581.9 112.2 575.3 116.1C568.7 120 563.5 125.2 559.6 131.9C555.8 138.5 553.9 145.7 553.9 153.3C553.9 161.1 555.8 168.2 559.6 174.8C563.5 181.4 568.7 186.6 575.3 190.5C581.9 194.3 589 196.2 596.8 196.2C604.5 196.2 611.6 194.3 618.2 190.5C624.8 186.6 630.1 181.4 634 174.8C638 168.2 640 161.1 640 153.3C640 145.6 638 138.5 634 131.9ZM619.5 166.9C617.3 170.9 614.2 174.2 610.3 176.6C606.4 179 602.1 180.1 597.4 180.1C592.5 180.1 588.1 178.9 584 176.6C580 174.2 576.9 170.9 574.5 166.8C572.2 162.7 571.1 158.2 571.1 153.3C571.1 148.3 572.2 143.7 574.5 139.6C576.8 135.5 579.9 132.2 583.8 129.9C587.8 127.5 592.2 126.2 597 126.2C601.8 126.2 606.2 127.4 610.1 129.9C614.1 132.3 617.2 135.5 619.5 139.6C621.8 143.7 622.9 148.3 622.9 153.3C622.8 158.2 621.7 162.8 619.5 166.9Z" fill="#D05843"/>
</svg>
